<?xml version="1.0" encoding="UTF-8" standalone="no"?>
<svg
   xmlns:dc="http://purl.org/dc/elements/1.1/"
   xmlns:cc="http://creativecommons.org/ns#"
   xmlns:rdf="http://www.w3.org/1999/02/22-rdf-syntax-ns#"
   xmlns:svg="http://www.w3.org/2000/svg"
   xmlns="http://www.w3.org/2000/svg"
   xmlns:sodipodi="http://sodipodi.sourceforge.net/DTD/sodipodi-0.dtd"
   xmlns:inkscape="http://www.inkscape.org/namespaces/inkscape"
   width="200mm"
   height="200mm"
   viewBox="0 0 200 200"
   version="1.1"
   id="svg8"
   inkscape:version="1.0.2 (e86c870879, 2021-01-15, custom)"
   sodipodi:docname="fb.svg">
  <defs
     id="defs2">
    <clipPath
       clipPathUnits="userSpaceOnUse"
       id="clipPath20">
      <path
         d="M 0,720 H 1280 V 0 H 0 Z"
         id="path18" />
    </clipPath>
  </defs>
  <sodipodi:namedview
     id="base"
     pagecolor="#ffffff"
     bordercolor="#666666"
     borderopacity="1.0"
     inkscape:pageopacity="0.0"
     inkscape:pageshadow="2"
     inkscape:zoom="0.49497475"
     inkscape:cx="388.15385"
     inkscape:cy="345.40573"
     inkscape:document-units="mm"
     inkscape:current-layer="g495"
     inkscape:document-rotation="0"
     showgrid="false"
     inkscape:window-width="1366"
     inkscape:window-height="700"
     inkscape:window-x="0"
     inkscape:window-y="32"
     inkscape:window-maximized="1" />
  <metadata
     id="metadata5">
    <rdf:RDF>
      <cc:Work
         rdf:about="">
        <dc:format>image/svg+xml</dc:format>
        <dc:type
           rdf:resource="http://purl.org/dc/dcmitype/StillImage" />
        <dc:title />
      </cc:Work>
    </rdf:RDF>
  </metadata>
  <g
     inkscape:label="Layer 1"
     inkscape:groupmode="layer"
     id="layer1"
     style="opacity:1">
    <g
       id="g495"
       transform="matrix(0.29803071,0,0,-0.29803133,88.085321,113.56731)">
      <path
         d="m 78.615797,179.72346 v 53.66735 c 0,26.14821 17.429613,32.23515 29.661403,32.23515 h 75.24514 v 114.9845 L 79.8947,381.05829 c -115.019007,0 -141.163428,-85.77454 -141.163428,-140.66659 V 179.72346 H -127.78992 V 98.637507 45.527669 h 67.08757 V -290.0121 H 73.436236 V 45.527669 H 172.9988 l 4.81414,52.707698 7.40851,81.488093 z"
         style="display:inline;fill:#ffffff;fill-opacity:1;fill-rule:nonzero;stroke:none;stroke-width:9.13727"
         id="path38"
         inkscape:label="fb" />
      <path
         d="m 366.60298,234.9711 c -24.13902,-10.5625 -50.09363,-17.65485 -77.36295,-20.86563 27.84172,16.41167 49.16349,42.39311 59.26091,73.40089 -26.02614,-15.23109 -54.90533,-26.26763 -85.6001,-32.22413 -24.53255,25.77574 -59.55607,41.89227 -98.30016,41.89227 -74.393661,0 -134.70993,-59.40402 -134.70993,-132.63498 0,-10.40153 1.198449,-20.47213 3.443317,-30.21182 -111.948232,5.52721 -211.232177,58.34866 -277.674897,138.57362 -11.57314,-19.57775 -18.26303,-42.37523 -18.26303,-66.67525 0,-45.98848 23.84389,-86.59287 59.94959,-110.374155 -22.05517,0.67972 -42.85819,6.654115 -61.03178,16.572675 v -1.64564 c 0,-16.984085 3.31811,-33.154291 9.22094,-48.072367 16.45641,-41.588186 53.5012,-73.007387 98.87258,-82.022631 -11.33168,-2.987195 -23.19996,-4.650722 -35.53332,-4.650722 -8.64855,0 -17.08245,0.840705 -25.33749,2.414796 17.18086,-52.678361 66.92568,-91.046806 125.855678,-92.102176 -46.122628,-35.5959 -104.176158,-56.79246 -167.336528,-56.79246 -10.88447,0 -21.59008,0.62607 -32.17047,1.85135 59.68128,-37.62611 130.52428,-59.58289 206.545691,-59.58289 210.624019,0 340.048239,145.916381 374.195269,297.28842 6.037,26.750585 9.15835,53.68901 9.15835,80.05502 0,5.71503 -0.10738,11.47477 -0.3667,17.15402 26.3034,18.69231 49.15454,42.0443 67.18503,68.65179"
         style="display:none;fill:#ffffff;fill-opacity:1;fill-rule:nonzero;stroke:none;stroke-width:8.9437"
         id="path54"
         inkscape:label="twitter" />
      <path
         d="M 142.31005,61.237823 -92.043468,-65.381613 -92.102494,129.55843 v 59.25611 L 13.587031,131.29569 Z M 422.65972,232.90799 c 0,0 -8.44996,62.3879 -34.43803,89.8296 -33.00804,35.9862 -69.99879,36.22257 -86.89871,38.31438 -121.50219,9.09995 -303.5959319,9.09995 -303.5959319,9.09995 h -0.401816 c 0,0 -182.2001121,0 -303.5841221,-9.14723 -16.95901,-2.04453 -53.89066,-2.2809 -86.94597,-38.29073 -25.96443,-27.4417 -34.44985,-89.84142 -34.44985,-89.84142 0,0 -8.69815,-73.17787 -8.69815,-146.426647 V 77.629574 17.85347 c 0,-73.284213 8.69815,-146.48571 8.69815,-146.48571 0,0 8.48542,-62.36427 34.44985,-89.79415 33.05531,-36.0453 76.45148,-34.89893 95.70321,-38.64529 69.43152,-6.92542 295.0159671,-9.11177 295.0159671,-9.11177 0,0 182.3064729,0.34272 303.8086629,9.44268 16.89992,2.11545 53.89067,2.26908 86.89871,38.33802 25.98807,27.44169 34.43803,89.79415 34.43803,89.79415 0,0 8.72178,73.177857 8.72178,146.46207 v 55.958845 12.633578 c 0,73.248777 -8.72178,146.462097 -8.72178,146.462097"
         style="display:none;fill:#ffffff;fill-opacity:1;fill-rule:nonzero;stroke:none;stroke-width:11.8181"
         id="path72"
         inkscape:label="yt" />
    </g>
  </g>
</svg>
