<?xml version="1.0" encoding="utf-8"?>
<!DOCTYPE svg PUBLIC "-//W3C//DTD SVG 20010904//EN" "http://www.w3.org/TR/2001/REC-SVG-20010904/DTD/svg10.dtd">
<svg version="1.0" xmlns="http://www.w3.org/2000/svg" width="1000px" height="1000px" viewBox="0 0 1000 1000" preserveAspectRatio="xMidYMid meet">
 <g fill="#ffffff">
 </g>
 <g fill="#f7f7f7">
 </g>
 <g fill="#efefef">
 </g>
 <g fill="#e6e6e6">
 </g>
 <g fill="#dedede">
 </g>
 <g fill="#d6d6d6">
 </g>
 <g fill="#cecece">
  <path d="M0 730.5 l0 -269.4 93.1 -93.1 c51.1 -51.1 93.2 -93 93.5 -93 0.2 0 0.4 120.8 0.4 268.5 l0 268.5 268.5 0 c147.7 0 268.5 0.3 268.5 0.8 0 0.4 -42 42.7 -93.4 94 l-93.3 93.2 -268.7 0 -268.6 0 0 -269.5z"/>
  <path d="M626.1 999.5 c0.2 -0.2 42.3 -42.4 93.4 -93.7 l93 -93.3 -0.3 -248.2 c-0.1 -154.2 -0.6 -248.3 -1.2 -248.3 -0.5 0 -98.8 97.9 -218.4 217.5 l-217.4 217.5 -63.6 0 -63.6 0 0 -63.8 0 -63.7 217.5 -217.5 c119.6 -119.6 217.5 -217.8 217.5 -218.2 0 -0.5 -111.7 -0.8 -248.2 -0.8 l-248.3 0 -92.8 92.7 c-51 51.1 -93 93 -93.2 93.2 -0.3 0.2 -0.5 -83.6 -0.5 -186.2 l0 -186.7 500 0 500 0 0 500 0 500 -187.2 0 c-102.9 0 -186.9 -0.2 -186.7 -0.5z"/>
 </g>
 <g fill="#c5c5c5">
 </g>
 <g fill="#bdbdbd">
 </g>
 <g fill="#b5b5b5">
 </g>
 <g fill="#adadad">
 </g>
 <g fill="#a5a5a5">
 </g>
 <g fill="#9c9c9c">
 </g>
 <g fill="#949494">
 </g>
 <g fill="#8c8c8c">
 </g>
 <g fill="#848484">
 </g>
 <g fill="#7b7b7b">
 </g>
 <g fill="#737373">
 </g>
 <g fill="#6b6b6b">
 </g>
 <g fill="#636363">
 </g>
 <g fill="#5a5a5a">
 </g>
 <g fill="#525252">
 </g>
 <g fill="#4a4a4a">
 </g>
 <g fill="#424242">
 </g>
 <g fill="#3a3a3a">
 </g>
 <g fill="#313131">
 </g>
 <g fill="#292929">
 </g>
 <g fill="#212121">
 </g>
 <g fill="#191919">
 </g>
 <g fill="#101010">
 </g>
 <g fill="#080808">
 </g>
 <g fill="#000000">
 </g>
</svg>