<?xml version="1.0" encoding="UTF-8" standalone="no"?>
<svg
   xmlns:dc="http://purl.org/dc/elements/1.1/"
   xmlns:cc="http://creativecommons.org/ns#"
   xmlns:rdf="http://www.w3.org/1999/02/22-rdf-syntax-ns#"
   xmlns:svg="http://www.w3.org/2000/svg"
   xmlns="http://www.w3.org/2000/svg"
   xmlns:sodipodi="http://sodipodi.sourceforge.net/DTD/sodipodi-0.dtd"
   xmlns:inkscape="http://www.inkscape.org/namespaces/inkscape"
   width="200mm"
   height="200mm"
   viewBox="0 0 200 200"
   version="1.1"
   id="svg8"
   inkscape:version="1.0.2 (e86c870879, 2021-01-15, custom)"
   sodipodi:docname="youtube.svg">
  <defs
     id="defs2">
    <clipPath
       clipPathUnits="userSpaceOnUse"
       id="clipPath20">
      <path
         d="M 0,720 H 1280 V 0 H 0 Z"
         id="path18" />
    </clipPath>
  </defs>
  <sodipodi:namedview
     id="base"
     pagecolor="#ffffff"
     bordercolor="#666666"
     borderopacity="1.0"
     inkscape:pageopacity="0.0"
     inkscape:pageshadow="2"
     inkscape:zoom="0.35"
     inkscape:cx="353.67497"
     inkscape:cy="418.96052"
     inkscape:document-units="mm"
     inkscape:current-layer="g495"
     inkscape:document-rotation="0"
     showgrid="false"
     inkscape:window-width="1366"
     inkscape:window-height="700"
     inkscape:window-x="0"
     inkscape:window-y="32"
     inkscape:window-maximized="1" />
  <metadata
     id="metadata5">
    <rdf:RDF>
      <cc:Work
         rdf:about="">
        <dc:format>image/svg+xml</dc:format>
        <dc:type
           rdf:resource="http://purl.org/dc/dcmitype/StillImage" />
        <dc:title></dc:title>
      </cc:Work>
    </rdf:RDF>
  </metadata>
  <g
     inkscape:label="Layer 1"
     inkscape:groupmode="layer"
     id="layer1"
     style="opacity:1">
    <g
       id="g495"
       transform="matrix(0.29803071,0,0,-0.29803133,88.085321,113.56731)">
      <path
         d="m 78.61479,179.51946 v 53.64056 c 0,26.13516 17.429528,32.21906 29.66126,32.21906 h 75.24477 v 114.92709 l -103.627133,0.44761 c -115.018446,0 -141.16274,-85.73172 -141.16274,-140.59636 V 179.51946 H -127.78992 V 98.473991 45.390667 h 67.087243 V -289.98158 H 73.435254 V 45.390667 h 99.562076 l 4.81412,52.681384 7.40847,81.447409 z"
         style="display:none;fill:#ffffff;fill-opacity:1;fill-rule:nonzero;stroke:none;stroke-width:9.13497"
         id="path38"
         inkscape:label="fb" />
      <path
         d="m 366.60298,234.9711 c -24.13902,-10.5625 -50.09363,-17.65485 -77.36295,-20.86563 27.84172,16.41167 49.16349,42.39311 59.26091,73.40089 -26.02614,-15.23109 -54.90533,-26.26763 -85.6001,-32.22413 -24.53255,25.77574 -59.55607,41.89227 -98.30016,41.89227 -74.393661,0 -134.70993,-59.40402 -134.70993,-132.63498 0,-10.40153 1.198449,-20.47213 3.443317,-30.21182 -111.948232,5.52721 -211.232177,58.34866 -277.674897,138.57362 -11.57314,-19.57775 -18.26303,-42.37523 -18.26303,-66.67525 0,-45.98848 23.84389,-86.59287 59.94959,-110.374155 -22.05517,0.67972 -42.85819,6.654115 -61.03178,16.572675 v -1.64564 c 0,-16.984085 3.31811,-33.154291 9.22094,-48.072367 16.45641,-41.588186 53.5012,-73.007387 98.87258,-82.022631 -11.33168,-2.987195 -23.19996,-4.650722 -35.53332,-4.650722 -8.64855,0 -17.08245,0.840705 -25.33749,2.414796 17.18086,-52.678361 66.92568,-91.046806 125.855678,-92.102176 -46.122628,-35.5959 -104.176158,-56.79246 -167.336528,-56.79246 -10.88447,0 -21.59008,0.62607 -32.17047,1.85135 59.68128,-37.62611 130.52428,-59.58289 206.545691,-59.58289 210.624019,0 340.048239,145.916381 374.195269,297.28842 6.037,26.750585 9.15835,53.68901 9.15835,80.05502 0,5.71503 -0.10738,11.47477 -0.3667,17.15402 26.3034,18.69231 49.15454,42.0443 67.18503,68.65179"
         style="display:none;fill:#ffffff;fill-opacity:1;fill-rule:nonzero;stroke:none;stroke-width:8.9437"
         id="path54"
         inkscape:label="twitter" />
      <path
         d="M 151.95737,45.926295 -29.282467,-51.474062 -29.32811,98.481032 V 144.06302 L 52.408026,99.8174 Z M 368.76883,177.98134 c 0,0 -6.53488,47.99108 -26.63304,69.10025 -25.52713,27.68192 -54.13432,27.86374 -67.20407,29.47283 -93.96501,7.00004 -234.789185,7.00004 -234.789185,7.00004 h -0.310747 c 0,0 -140.906418,0 -234.780068,-7.0364 -13.11545,-1.57273 -41.67693,-1.75455 -67.24062,-29.45464 -20.07988,-21.10917 -26.64216,-69.10935 -26.64216,-69.10935 0,0 -6.72681,-56.29111 -6.72681,-112.636795 v -6.781839 -45.98199 c 0,-56.372929 6.72681,-112.682226 6.72681,-112.682226 0,0 6.56228,-47.9729 26.64216,-69.07298 25.56369,-27.72738 59.12459,-26.84555 74.01312,-29.72739 53.69562,-5.32728 228.153798,-7.00911 228.153798,-7.00911 0,0 140.988692,0.26363 234.953702,7.26366 13.06975,1.62728 41.67694,1.74546 67.20407,29.49102 20.09816,21.10916 26.63304,69.07299 26.63304,69.07299 0,0 6.74508,56.291107 6.74508,112.664036 v 43.045614 9.718215 c 0,56.345685 -6.74508,112.664065 -6.74508,112.664065"
         style="display:inline;fill:#ffffff;fill-opacity:1;fill-rule:nonzero;stroke:none;stroke-width:9.11526"
         id="path72"
         inkscape:label="yt" />
    </g>
  </g>
</svg>
